<svg xmlns="http://www.w3.org/2000/svg" width="512" height="512" viewBox="0 0 592.813 592.814"><path d="M589.173 356.232l-104.756 198.26c-5.125 9.858-19.653 20.285-30.872 20.285l-420.096.077a33.43 33.43 0 0 1-23.655-9.794A33.456 33.456 0 0 1 0 541.405l.068-326.209c0-18.448 14.955-33.417 33.405-33.435l30.715-.029v28.496H43.639a15.178 15.178 0 0 0-10.731 4.442 15.186 15.186 0 0 0-4.442 10.731l.03 305.796c0 8.388 6.797 15.173 15.176 15.173h21.045l99.28-200.836c5.609-11.219 16.208-20.286 27.411-20.286h243.14l.083-80.823c15.876 1.472 28.406 14.641 28.406 30.893v49.931H574.55c13.169.135 24.258 13.157 14.623 30.983zm-505.615 89.04c-.907-99.969 0-399.884 0-399.884 0-15.132 12.306-27.429 27.423-27.429h219.614c3.518 0 6.874 1.472 9.251 4.061l71 77.141a12.623 12.623 0 0 1 3.321 8.515v199.839h-23.034V124.932a5.729 5.729 0 0 0-5.728-5.725h-54.343c-6.36 0-11.532-5.163-11.532-11.511V46.721a5.728 5.728 0 0 0-5.728-5.725H110.995a4.4 4.4 0 0 0-4.395 4.392v374.739l-17.626 35.66c.001-.006-5.325-.396-5.416-10.515zm259.03-349.09H376.8l-34.212-37.188v37.188zm12.477 46.485H142.813c-7.82 0-14.168 6.354-14.168 14.174 0 7.814 6.354 14.171 14.168 14.171h212.258c7.82 0 14.187-6.362 14.187-14.171-.013-7.814-6.378-14.174-14.193-14.174zm14.18 96.709c0-7.814-6.359-14.162-14.18-14.162H142.813c-7.82 0-14.168 6.36-14.168 14.162 0 7.814 6.354 14.162 14.168 14.162h212.258c7.809.001 14.174-6.348 14.174-14.162zM128.636 322.47c0 7.813 6.357 14.162 14.171 14.162h5.089c8.958-24.967 31.164-28.324 31.164-28.324h-36.253c-7.802 0-14.171 6.348-14.171 14.162z" data-original="#000000" class="active-path" data-old_color="#42b012" fill="#42b012"/></svg>