<svg xmlns="http://www.w3.org/2000/svg" viewBox="0 0 492 492" width="512" height="512"><path d="M293.392 245.896L109.336 429.96c-5.068 5.056-7.856 11.816-7.856 19.024 0 7.212 2.788 13.968 7.856 19.032l16.128 16.12c5.06 5.072 11.824 7.864 19.032 7.864s13.964-2.792 19.028-7.864l219.148-219.144c5.084-5.08 7.868-11.868 7.848-19.084.02-7.248-2.76-14.028-7.848-19.112L163.728 7.864C158.664 2.792 151.908 0 144.696 0c-7.208 0-13.964 2.792-19.032 7.864l-16.124 16.12c-10.492 10.492-10.492 27.572 0 38.06l183.852 183.852z" data-original="#000000" class="active-path" data-old_color="#005e00" fill="#005e00"/></svg>